<?xml version="1.0"?>
<svg xmlns="http://www.w3.org/2000/svg" viewBox="0 0 512 512" width="512px" height="512px" class=""><g><g id="Fill_out_line" data-name="Fill out line"><path d="M200,80h58.74518a32,32,0,0,0,22.62739-9.37257l0,0a32,32,0,0,0,0-45.25478L280,24l18.74521,18.74521a63.99994,63.99994,0,0,1,0,90.50958l-.00006.00006A63.99993,63.99993,0,0,1,253.49036,152H200Z" style="fill:#e36080" data-original="#E36080" class=""/><path d="M120,104v0A79.99993,79.99993,0,0,1,152,40l0,0,0,0A79.99993,79.99993,0,0,1,184,104v0Z" style="fill:#FFC6FA" data-original="#37A4C9" class="active-path" data-old_color="#37A4C9"/><path d="M184,80h-6.05891A81.94105,81.94105,0,0,0,120,104l0,0v40h64Z" style="fill:#e36080" data-original="#E36080" class=""/><polygon points="174.627 136.97 118.52 194.125 101.41 163.34 90.04 142.87 80.72 126.09 69.35 105.62 24 24 79.37 65.53 93.26 75.94 104.64 84.48 118.52 94.89 174.627 136.97" style="fill:#f4e2a0" data-original="#F4E2A0" class=""/><path d="M496,344V496H128a135.18228,135.18228,0,0,1,39.6-95.6001L184,384a79.11446,79.11446,0,0,0,.12-111.87988L184,272v.2l-87.76,59.24a15.99306,15.99306,0,0,1-16.87.64014L31.77,304.98a15.995,15.995,0,0,1-4.88-23.5L128.72,145.70667,160,144V128a80.02057,80.02057,0,0,1,32-64,80.02057,80.02057,0,0,1,32,64L440,344Z" style="fill:#FFFFFF" data-original="#90D2ED" class="" data-old_color="#90D2ED"/><path d="M168,136l0,0a22.6274,22.6274,0,0,1,0,32l-16.62193,16.62193A52.50411,52.50411,0,0,1,114.25209,200h0a52.5041,52.5041,0,0,0-42.00328,21.00164L64,232V191.59794A39.59794,39.59794,0,0,1,103.59794,152h.00006a39.59793,39.59793,0,0,0,28-11.598L136,136A22.6274,22.6274,0,0,1,168,136Z" style="fill:#b28ec1" data-original="#B28EC1" class=""/><path d="M352,392h81.37261A54.62737,54.62737,0,0,0,472,376l0,0a54.62737,54.62737,0,0,0,16-38.62737v-16A22.62739,22.62739,0,0,1,465.37261,344h0a22.6274,22.6274,0,0,1-16-6.62741L392,280Z" style="fill:#f4d75a" data-original="#F4D75A" class=""/><path d="M240,128l20.88733-20.88733a44,44,0,0,1,62.22534,0l0,0A44,44,0,0,1,336,138.22538v18.0589a28.28425,28.28425,0,0,0,8.28426,20l7.43148,7.43148a28.28425,28.28425,0,0,0,20,8.28426h0A28.28425,28.28425,0,0,0,400,163.71576v28.6863A39.59794,39.59794,0,0,1,360.40206,232H360.402a39.59793,39.59793,0,0,1-28-11.598Z" style="fill:#b28ec1" data-original="#B28EC1" class=""/><path d="M288,280v32l41.37261,41.37261a32,32,0,0,1,0,45.25478l0,0A32,32,0,0,1,306.74518,408h48A45.25479,45.25479,0,0,0,400,362.74521v-.00006a45.25478,45.25478,0,0,0-13.25482-32L336,280Z" style="fill:#e36080" data-original="#E36080" class=""/><path d="M280,152,392.201,264.201a28,28,0,0,0,39.59794,0l0,0A28,28,0,0,0,440,244.402v47.71574a47.99994,47.99994,0,0,1-14.05886,33.94109l-.00005.00005a47.99994,47.99994,0,0,1-67.88218,0L276,244Z" style="fill:#68b99c" data-original="#68B99C" class=""/><path d="M264,128l31.71575,31.71575a28.28426,28.28426,0,0,1,8.28427,20v72.56856a28.28426,28.28426,0,0,0,8.28427,20L316,276a28.28425,28.28425,0,0,0,40,0l0,0a40.9705,40.9705,0,0,0,12-28.97051V232l0,0A56.56848,56.56848,0,0,1,368,312L368,312A56.56848,56.56848,0,0,1,288,312l-5.25489-5.25489A63.99993,63.99993,0,0,1,264,261.49036V250.50964a63.99993,63.99993,0,0,0-18.74515-45.25479L216,176a33.9411,33.9411,0,0,1,0-48l0,0A33.94109,33.94109,0,0,1,264,128Z" style="fill:#f4d75a" data-original="#F4D75A" class=""/><path d="M488,312a7.99786,7.99786,0,0,0-8,8v1.37012A14.63,14.63,0,0,1,455.03,331.72l-13.51-13.51a55.008,55.008,0,0,0,6.23-26.90991l.22-45.46021q.03-.72.03-1.43994V240a7.99986,7.99986,0,0,0-7.98-8H440a8.00223,8.00223,0,0,0-8,7.96l-.03,5.48A19.997,19.997,0,0,1,397.86,258.54l-9.49-9.49a63.70967,63.70967,0,0,0-7.25-13.8A47.64911,47.64911,0,0,0,408,192.3999V152a8,8,0,0,0-16,0v11.72a20.27986,20.27986,0,0,1-34.62,14.34009l-7.44-7.43994A20.14328,20.14328,0,0,1,344,156.28V138.23a52.06891,52.06891,0,0,0-15.23-36.78q-1.89-1.89-3.96-3.57983a71.73541,71.73541,0,0,0-20.4-60.78028l-18.75-18.75A8.00445,8.00445,0,0,0,274.34,29.65991L275.71,31.03a23.99728,23.99728,0,0,1,0,33.93994A24.132,24.132,0,0,1,258.75,72H211.87A87.84963,87.84963,0,0,0,196.8,57.6001a7.99457,7.99457,0,0,0-9.6,0c-1.97,1.48-3.88,3.0498-5.72,4.67993A88.26915,88.26915,0,0,0,156.8,33.6001a8.0096,8.0096,0,0,0-9.6,0,88.25159,88.25159,0,0,0-32.42,48.48L28.8,17.6001A7.99605,7.99605,0,0,0,17.01,27.87988L83.89,148.28A47.64833,47.64833,0,0,0,56,191.6001v37.73L20.49,276.67993a23.98568,23.98568,0,0,0,7.33,35.25L75.41,339.03a23.80285,23.80285,0,0,0,25.30005-.96l82.15-55.44995a71.28826,71.28826,0,0,1-4.52,95.71972L161.94,394.75A142.25974,142.25974,0,0,0,120,496h16a126.35789,126.35789,0,0,1,37.25-89.93994l16.41-16.40015a87.21,87.21,0,0,0,6.52-116.03l16.3-11-8.96-13.25976L91.76,324.81006a7.94121,7.94121,0,0,1-8.44.31982L35.73,298.03a8.00276,8.00276,0,0,1-2.44-11.75l37.11-49.48,8.25-11a44.73321,44.73321,0,0,1,35.6-17.8,60.08012,60.08012,0,0,0,42.78-17.72L173.66,173.65991a30.67274,30.67274,0,0,0,0-43.32007A30.153,30.153,0,0,0,168.03,125.8999a72.52837,72.52837,0,0,1,14.15-40.7998c.08-.09009.15-.19019.22-.28A71.12609,71.12609,0,0,1,192,74.33984a71.14447,71.14447,0,0,1,9.6,10.47022,72.20218,72.20218,0,0,1,6.8,10.99,71.45,71.45,0,0,1,6.91,22.30005,42.3782,42.3782,0,0,0-4.97,4.23974,41.95905,41.95905,0,0,0,0,59.32007l29.25,29.25A55.63585,55.63585,0,0,1,256,250.51v10.98a71.56693,71.56693,0,0,0,21.09,50.91992L323.71,359.03a24.02141,24.02141,0,0,1,0,33.93994A24.05122,24.05122,0,0,1,306.75,400H304a8,8,0,0,0,0,16h50.75a53.11234,53.11234,0,0,0,38.05-16h40.57A62.61689,62.61689,0,0,0,496,337.37012V320A7.99786,7.99786,0,0,0,488,312ZM116.42,103.32007l23.4,17.55005L130.4,130.28l-.06.05981-4.4,4.41016a31.338,31.338,0,0,1-19.67,9.12988Zm21.75-3.7a74.10525,74.10525,0,0,1,22.46-9.56006A88.25477,88.25477,0,0,0,153.64,111.23ZM72.19,94.27,49.21,52.90991,77.27,73.96Zm11.37,20.46,7.59-30.35986,11.38,8.52978L92.88,131.51Zm78.78,47.60986L145.72,178.97A44.21879,44.21879,0,0,1,114.25,192,60.8616,60.8616,0,0,0,72,209.21V191.6001A31.62842,31.62842,0,0,1,103.6,160a47.3166,47.3166,0,0,0,33.66-13.93994l4.4-4.40015A14.623,14.623,0,0,1,162.34,162.33984ZM130.4,85.6001A72.29688,72.29688,0,0,1,152,50.33984,71.902,71.902,0,0,1,168.73,72.48,90.276,90.276,0,0,0,130.4,85.6001ZM325.26,124.45A35.81338,35.81338,0,0,1,328,138.23V156.28a36.05805,36.05805,0,0,0,10.62,25.65991l7.44,7.43994a36.33234,36.33234,0,0,0,45.91,4.46,31.644,31.644,0,0,1-28.78,30.03028L311.11,171.79a36.47594,36.47594,0,0,0-9.73-17.73l-31.72-31.72022a41.37531,41.37531,0,0,0-7.03-5.6499l3.92-3.91992A36.005,36.005,0,0,1,325.26,124.45ZM360,243.32007v3.71a32.92912,32.92912,0,0,1-9.66,23.30981,20.29731,20.29731,0,0,1-28.68006,0l-3.72-3.71972A20.14328,20.14328,0,0,1,312,252.28v-56.96ZM258.75,88a40.00575,40.00575,0,0,0,39.5-33.66992A55.67676,55.67676,0,0,1,309.48,89.27,52.24146,52.24146,0,0,0,255.23,101.45L246.16,110.52a40.80057,40.80057,0,0,0-6.16-.46,41.9541,41.9541,0,0,0-9.62,1.11987,87.40351,87.40351,0,0,0-7.67-22.53979c-.11-.22022-.22-.43018-.33-.64014Zm34.91,218.33984-5.25-5.25A55.63484,55.63484,0,0,1,272,261.49V250.51a71.56794,71.56794,0,0,0-21.09-50.92017l-29.25-29.25a25.92865,25.92865,0,0,1,0-36.67993,25.33281,25.33281,0,0,1,5.96-4.45,25.92742,25.92742,0,0,1,30.72,4.45l31.72,31.72A20.33217,20.33217,0,0,1,295.85,177.28c.01.05.01.11011.02.16992a18.252,18.252,0,0,1,.13,2.27V252.28a36.04088,36.04088,0,0,0,10.62,25.65991l3.72,3.72a36.34581,36.34581,0,0,0,51.31994,0A49.13645,49.13645,0,0,0,374.65,258.46a48.56826,48.56826,0,0,1-80.99,47.87988ZM385.34,384c-.42005.62012-.87006,1.23-1.34,1.82007-.26.33984-.54.67993-.82,1.01A37.21623,37.21623,0,0,1,354.75,400h-16a40.07644,40.07644,0,0,0-3.72-52.29l-11.28-11.28c1.41.09009,2.83.14014,4.25.14014a64.75939,64.75939,0,0,0,24.45-4.8,55.61955,55.61955,0,0,0,36.52,16.27c.07.1499.14.2998.2.45A37.27416,37.27416,0,0,1,385.34,384ZM392,332.12012a39.642,39.642,0,0,1-24.92-8.72022,64.49031,64.49031,0,0,0,25.43-48.73,36.11664,36.11664,0,0,0,39.32-.22l-.08,16.88013v.23a39.08115,39.08115,0,0,1-11.47,28.83984,39.86814,39.86814,0,0,1-26.75,11.68994Q392.765,332.11987,392,332.12012Zm74.34,38.21972A46.2897,46.2897,0,0,1,433.37,384h-29.8a53.26625,53.26625,0,0,0,1.89-37.52,55.69877,55.69877,0,0,0,26.14-14.76c.13-.13989.27-.27.4-.40991l11.72,11.72a30.60527,30.60527,0,0,0,34.82,5.99A46.34922,46.34922,0,0,1,466.34,370.33984Z" data-original="#000000" class=""/></g></g> </svg>
